<svg width="20" height="22" viewBox="0 0 20 22" fill="none" xmlns="http://www.w3.org/2000/svg">
<g id="Home">
<path id="Home_2" d="M7.14373 19.7816V16.7148C7.14372 15.9376 7.77567 15.3062 8.55844 15.3013H11.4326C12.2189 15.3013 12.8563 15.9341 12.8563 16.7148V16.7148V19.7727C12.8563 20.4468 13.404 20.9946 14.0829 20.9995H16.0438C16.9596 21.0018 17.8388 20.6423 18.4872 20.0002C19.1356 19.3581 19.5 18.4863 19.5 17.577V8.86536C19.5 8.1309 19.1721 7.43422 18.6046 6.96301L11.943 1.67378C10.7785 0.748634 9.11537 0.77852 7.98539 1.7449L1.46701 6.96301C0.872741 7.42033 0.517552 8.11907 0.5 8.86536V17.5681C0.5 19.4632 2.04738 20.9995 3.95617 20.9995H5.87229C6.19917 21.0018 6.51349 20.8746 6.74547 20.6459C6.97746 20.4173 7.10793 20.1062 7.10792 19.7816H7.14373Z" stroke="#AAACAE"/>
</g>
</svg>
